<svg width="136" height="40" viewBox="0 0 136 40" fill="none" xmlns="http://www.w3.org/2000/svg">
<rect width="40" height="40" rx="20" fill="#8BAC3E"/>
<path d="M12.5 16.6667L19.075 21.0501C19.3489 21.2328 19.6708 21.3303 20 21.3303C20.3292 21.3303 20.6511 21.2328 20.925 21.0501L27.5 16.6667M14.1667 25.8334H25.8333C26.2754 25.8334 26.6993 25.6578 27.0118 25.3453C27.3244 25.0327 27.5 24.6088 27.5 24.1667V15.8334C27.5 15.3914 27.3244 14.9675 27.0118 14.6549C26.6993 14.3423 26.2754 14.1667 25.8333 14.1667H14.1667C13.7246 14.1667 13.3007 14.3423 12.9882 14.6549C12.6756 14.9675 12.5 15.3914 12.5 15.8334V24.1667C12.5 24.6088 12.6756 25.0327 12.9882 25.3453C13.3007 25.6578 13.7246 25.8334 14.1667 25.8334Z" stroke="white" stroke-width="2" stroke-linecap="round" stroke-linejoin="round"/>
<rect x="48" width="40" height="40" rx="20" fill="white"/>
<path d="M60.9882 12.9882C60.6756 13.3007 60.5 13.7246 60.5 14.1667V15C60.5 21.9033 66.0967 27.5 73 27.5H73.8333C74.2754 27.5 74.6993 27.3244 75.0118 27.0118C75.3244 26.6993 75.5 26.2754 75.5 25.8333V23.1008C75.5 22.9259 75.445 22.7553 75.3427 22.6134C75.2404 22.4714 75.096 22.3653 74.93 22.31L71.1858 21.0617C70.9956 20.9984 70.7888 21.0059 70.6036 21.0827C70.4184 21.1596 70.2671 21.3006 70.1775 21.48L69.2358 23.3608C67.1954 22.4389 65.5611 20.8046 64.6392 18.7642L66.52 17.8225C66.6994 17.7329 66.8404 17.5816 66.9173 17.3964C66.9941 17.2112 67.0016 17.0044 66.9383 16.8142L65.69 13.07C65.6348 12.9041 65.5287 12.7598 65.387 12.6575C65.2452 12.5552 65.0748 12.5001 64.9 12.5H62.1667C61.7246 12.5 61.3007 12.6756 60.9882 12.9882Z" stroke="#8BAC3E" stroke-width="2" stroke-linecap="round" stroke-linejoin="round"/>
<rect x="96" width="40" height="40" rx="20" fill="white"/>
<path d="M116 13.8719C117.996 13.8719 118.233 13.8793 119.021 13.9155C121.047 14.0077 121.993 14.9689 122.086 16.9798C122.122 17.7679 122.129 18.0046 122.129 20.0005C122.129 21.9971 122.121 22.2332 122.086 23.0213C121.993 25.0303 121.049 25.9934 119.021 26.0856C118.233 26.1217 117.997 26.1292 116 26.1292C114.004 26.1292 113.767 26.1217 112.979 26.0856C110.948 25.9928 110.007 25.0272 109.915 23.0206C109.879 22.2326 109.871 21.9965 109.871 19.9999C109.871 18.004 109.879 17.7679 109.915 16.9792C110.008 14.9689 110.951 14.0071 112.979 13.9149C113.768 13.8793 114.004 13.8719 116 13.8719ZM116 12.5244C113.97 12.5244 113.716 12.5331 112.918 12.5693C110.203 12.6939 108.694 14.2002 108.57 16.9175C108.533 17.7155 108.524 17.9697 108.524 19.9999C108.524 22.0301 108.533 22.2849 108.569 23.0823C108.694 25.7972 110.2 27.306 112.918 27.4306C113.716 27.4667 113.97 27.4754 116 27.4754C118.03 27.4754 118.285 27.4667 119.082 27.4306C121.795 27.306 123.307 25.7997 123.43 23.0823C123.467 22.2849 123.475 22.0301 123.475 19.9999C123.475 17.9697 123.467 17.7155 123.431 16.9181C123.308 14.2058 121.8 12.6945 119.083 12.5699C118.285 12.5331 118.03 12.5244 116 12.5244V12.5244ZM116 16.1612C113.88 16.1612 112.161 17.88 112.161 19.9999C112.161 22.1198 113.88 23.8392 116 23.8392C118.12 23.8392 119.839 22.1205 119.839 19.9999C119.839 17.88 118.12 16.1612 116 16.1612ZM116 22.4918C114.624 22.4918 113.508 21.3767 113.508 19.9999C113.508 18.6238 114.624 17.5081 116 17.5081C117.376 17.5081 118.492 18.6238 118.492 19.9999C118.492 21.3767 117.376 22.4918 116 22.4918ZM119.991 15.1128C119.495 15.1128 119.093 15.5146 119.093 16.0099C119.093 16.5051 119.495 16.9069 119.991 16.9069C120.486 16.9069 120.887 16.5051 120.887 16.0099C120.887 15.5146 120.486 15.1128 119.991 15.1128Z" fill="#8BAC3E"/>
</svg>
