<svg width="12" height="11" viewBox="0 0 12 11" fill="none" xmlns="http://www.w3.org/2000/svg">
<path d="M11.3124 4.08243C11.2303 3.82962 10.9849 3.65586 10.6393 3.60566L7.89801 3.20728L6.67209 0.723295C6.51748 0.410063 6.2764 0.230408 6.01062 0.230408C5.74484 0.230408 5.50376 0.410063 5.34918 0.723295L4.1233 3.20726L1.38201 3.60564C1.03632 3.65584 0.790968 3.82962 0.708824 4.08238C0.6267 4.33517 0.723066 4.61996 0.973164 4.86377L2.95677 6.79725L2.48849 9.5275C2.42692 9.88663 2.53149 10.1014 2.63008 10.2183C2.7454 10.3551 2.91362 10.4304 3.10377 10.4304C3.24753 10.4304 3.40064 10.3883 3.55874 10.3051L6.01062 9.01604L8.4625 10.3051C8.62065 10.3882 8.77373 10.4304 8.91751 10.4304H8.91755C9.10772 10.4304 9.27595 10.3551 9.39126 10.2183C9.48984 10.1014 9.59443 9.88661 9.53283 9.52746L9.0645 6.79727L11.0481 4.86381C11.2982 4.62 11.3946 4.33519 11.3124 4.08243Z" fill="#FF8412"/>
</svg>
